<?xml version="1.0" encoding="UTF-8" standalone="no"?>
<!-- Created with Inkscape (http://www.inkscape.org/) -->

<svg
   version="1.1"
   id="svg1"
   width="30"
   height="30"
   viewBox="0 0 50 50"
   sodipodi:docname="studybuddy.svg"
   inkscape:export-filename="studybuddy.svg"
   inkscape:export-xdpi="99.458527"
   inkscape:export-ydpi="99.458527"
   inkscape:version="1.4 (86a8ad7, 2024-10-11)"
   xmlns:inkscape="http://www.inkscape.org/namespaces/inkscape"
   xmlns:sodipodi="http://sodipodi.sourceforge.net/DTD/sodipodi-0.dtd"
   xmlns="http://www.w3.org/2000/svg"
   xmlns:svg="http://www.w3.org/2000/svg">
  <sodipodi:namedview
     id="namedview1"
     pagecolor="#ffffff"
     bordercolor="#000000"
     borderopacity="0.25"
     inkscape:showpageshadow="2"
     inkscape:pageopacity="0.0"
     inkscape:pagecheckerboard="0"
     inkscape:deskcolor="#d1d1d1"
     inkscape:zoom="1.6763888"
     inkscape:cx="178.35957"
     inkscape:cy="189.09694"
     inkscape:window-width="1440"
     inkscape:window-height="878"
     inkscape:window-x="-6"
     inkscape:window-y="-6"
     inkscape:window-maximized="1"
     inkscape:current-layer="svg1" />
  <defs
     id="defs1" />
  <g
     id="g1"
     transform="matrix(0.27075694,0,0,0.27075694,-22.420724,-12.959534)">
    <path
       style="fill:#0000ff;stroke-width:0.788644"
       d="m 156.54573,425.5175 c -16.63978,-0.50886 -18.25718,-0.97852 -23.69827,-6.8814 -6.22203,-6.75011 -8.34153,-15.1608 -5.91981,-23.49123 1.81081,-6.22895 7.75191,-12.31045 13.45418,-13.77213 5.92282,-1.5182 31.01578,-2.33808 74.91785,-2.44783 21.68769,-0.0542 55.40221,-0.38692 74.92113,-0.73933 l 35.48896,-0.64075 7.88644,-2.76122 c 16.93142,-5.92807 24.8998,-10.90668 35.94585,-22.45882 13.98863,-14.62956 20.83459,-30.74797 21.79875,-51.32391 0.76062,-16.23231 -2.32536,-30.36571 -9.62796,-44.09492 -11.88708,-22.34821 -35.19606,-39.04274 -58.69335,-42.03777 -3.21467,-0.40975 -30.71697,-1.10742 -61.1162,-1.55038 -55.4869,-0.80852 -65.82544,-1.30419 -70.83173,-3.39595 -5.05045,-2.11021 -11.15215,-11.55249 -12.13557,-18.77958 -1.05908,-7.78309 4.05664,-16.05544 13.23678,-21.40447 5.95587,-3.47033 16.64458,-4.07559 72.41712,-4.10068 52.02482,-0.0234 58.11397,0.30503 74.90847,4.04038 39.22187,8.72353 69.82076,32.76779 86.69079,68.12064 14.78497,30.98339 17.17108,66.9477 6.61749,99.74128 -14.14053,43.93944 -47.95323,74.33567 -94.8729,85.2868 -7.52602,1.75659 -10.8325,1.99768 -36.27761,2.64528 -29.83809,0.75941 -120.83894,0.78825 -145.11041,0.046 z"
       id="path4" />
    <path
       style="fill:#0000ff;stroke-width:0.788644"
       d="m 242.9022,307.91404 c -45.79986,-1.49755 -52.79564,-2.01592 -62.58685,-4.63762 -46.0464,-12.32939 -80.02689,-43.85915 -92.785803,-86.09394 -4.17627,-13.82437 -4.721976,-18.14332 -4.721976,-37.37175 0,-19.87448 0.895421,-26.08487 6.023632,-41.77822 3.268952,-10.00365 12.315567,-27.83367 18.616077,-36.69052 6.80922,-9.571972 19.04708,-21.85889 28.46902,-28.583149 22.49227,-16.052306 46.83202,-23.536681 80.56634,-24.773822 23.62351,-0.866347 36.13874,2.879845 42.12691,12.609876 2.02835,3.29583 2.39161,4.758883 2.68019,10.794752 0.28719,6.006768 0.0917,7.482267 -1.39903,10.561779 -4.34818,8.982157 -12.48679,11.905343 -38.6762,13.89154 -20.62934,1.564522 -32.58973,4.402084 -45.11948,10.704464 -18.92543,9.51935 -31.77518,22.01974 -40.45143,39.35162 -6.32657,12.63811 -8.45356,21.495 -8.52269,35.48896 -0.0911,18.44544 4.31607,31.58039 15.43675,46.00681 9.16933,11.89501 31.48809,26.78961 44.98867,30.02355 7.8334,1.87642 21.42685,2.50527 78.00713,3.60874 56.46559,1.10123 58.25393,1.1828 62.08758,2.83199 4.6436,1.99763 9.78398,7.26667 12.01944,12.3203 2.19234,4.95614 1.8008,14.12261 -0.81873,19.1676 -4.15,7.99253 -8.71582,10.76048 -19.52709,11.83798 -11.45704,1.14185 -51.96717,1.52836 -76.41246,0.72906 z"
       id="path5" />
  </g>
</svg>
