<svg width="32" height="32" viewBox="0 0 32 32" fill="none" xmlns="http://www.w3.org/2000/svg">
<path d="M30.8611 23.8845L26.5827 3.54309C26.5274 3.27708 26.4201 3.02463 26.2669 2.80023C26.1137 2.57584 25.9176 2.38392 25.6901 2.23551C25.4625 2.0871 25.2078 1.98512 24.9407 1.93542C24.6736 1.88573 24.3993 1.88931 24.1335 1.94594L18.0994 3.24274C17.5657 3.35961 17.0997 3.68249 16.8027 4.14115C16.5058 4.59981 16.402 5.15715 16.5139 5.69196L20.7923 26.0334C20.8876 26.4975 21.1398 26.9146 21.5065 27.2146C21.8732 27.5146 22.332 27.6792 22.8058 27.6808C22.9522 27.6805 23.0983 27.665 23.2415 27.6344L29.2756 26.3376C29.81 26.2204 30.2764 25.8969 30.5734 25.4375C30.8704 24.978 30.9738 24.4198 30.8611 23.8845ZM18.5312 5.27044V5.25884L24.5641 3.96977L24.9933 6.01552L18.9605 7.3136L18.5312 5.27044ZM19.3846 9.32712L25.42 8.03161L25.8505 10.0812L19.8203 11.378L19.3846 9.32712ZM20.2405 13.3967L26.2759 12.0999L27.9904 20.2519L21.955 21.5487L20.2405 13.3967ZM28.8438 24.3215L22.8109 25.6106L22.3817 23.5648L28.4145 22.2667L28.8438 24.3099V24.3215ZM14.4062 2.93079H8.21875C7.67174 2.93079 7.14714 3.14809 6.76034 3.53488C6.37355 3.92167 6.15625 4.44628 6.15625 4.99329V25.6183C6.15625 26.1653 6.37355 26.6899 6.76034 27.0767C7.14714 27.4635 7.67174 27.6808 8.21875 27.6808H14.4062C14.9533 27.6808 15.4779 27.4635 15.8647 27.0767C16.2515 26.6899 16.4688 26.1653 16.4688 25.6183V4.99329C16.4688 4.44628 16.2515 3.92167 15.8647 3.53488C15.4779 3.14809 14.9533 2.93079 14.4062 2.93079ZM8.21875 4.99329H14.4062V7.05579H8.21875V4.99329ZM8.21875 9.11829H14.4062V21.4933H8.21875V9.11829ZM14.4062 25.6183H8.21875V23.5558H14.4062V25.6183Z" fill="black"/>
</svg>
