<svg width="60" height="60" viewBox="0 0 20 20" fill="none" xmlns="http://www.w3.org/2000/svg">
<path d="M11.3403 2.92935C11.2981 2.8958 11.2477 2.87424 11.1943 2.86694C11.1409 2.85964 11.0865 2.86686 11.0368 2.88785L6.20684 4.97935C5.99684 5.07085 5.73384 5.11435 5.46384 5.11435C5.08734 5.11585 4.69784 5.02835 4.42634 4.90935C4.34356 4.87458 4.26477 4.83099 4.19134 4.77935C4.21167 4.76935 4.23584 4.75868 4.26384 4.74735L8.65684 2.84535L9.31184 3.12535V2.30685C9.31264 2.24851 9.30035 2.19073 9.27586 2.13777C9.25137 2.08481 9.21531 2.03802 9.17034 2.00085C9.1285 1.96699 9.07819 1.94523 9.02487 1.93792C8.97155 1.9306 8.91725 1.93801 8.86784 1.95935L4.03784 4.05085C3.88884 4.11085 3.76084 4.18485 3.65284 4.29235C3.52791 4.41582 3.45691 4.58371 3.45534 4.75935C3.45534 4.76435 3.45684 4.77285 3.45684 4.77285V12.1378L3.45584 12.1478L3.45734 12.1528V12.1608H3.45834C3.46834 12.4183 3.59834 12.5823 3.72234 12.6983C4.11234 13.0423 4.76734 13.2348 5.46434 13.2448C5.79434 13.2448 6.12934 13.1948 6.43934 13.0618L11.2708 10.9698C11.3983 10.9148 11.4818 10.7783 11.4818 10.6238V3.23535C11.4826 3.17701 11.4703 3.11923 11.4459 3.06627C11.4214 3.01331 11.3853 2.96652 11.3403 2.92935ZM8.27684 1.52935C8.26834 1.41935 8.22284 1.31435 8.14184 1.25135C8.09964 1.2178 8.04919 1.19624 7.99578 1.18894C7.94237 1.18164 7.88799 1.18886 7.83834 1.20985L3.00834 3.30035C2.79834 3.39135 2.53484 3.43535 2.26534 3.43535C1.88884 3.43635 1.49934 3.34885 1.22784 3.22935C1.1451 3.1949 1.06632 3.15165 0.992836 3.10035C1.01317 3.09035 1.03734 3.07968 1.06534 3.06835L5.45884 1.16635L6.11384 1.44635V0.628847C6.11458 0.570465 6.10221 0.512661 6.07763 0.459699C6.05306 0.406738 6.0169 0.35997 5.97184 0.322847C5.92969 0.289393 5.87933 0.267889 5.82602 0.260587C5.77271 0.253286 5.71842 0.260456 5.66884 0.281347L0.838836 2.37335C0.689836 2.43335 0.562336 2.50685 0.453836 2.61485C0.329095 2.7384 0.258278 2.90628 0.256836 3.08185C0.256836 3.08785 0.258336 3.09585 0.258336 3.09585V10.4843H0.259336C0.269336 10.7418 0.399336 10.9058 0.523336 11.0218C0.913336 11.3658 1.56834 11.5578 2.26584 11.5678C2.45525 11.5666 2.64405 11.5462 2.82934 11.5068V4.77235C2.82434 4.42235 2.96434 4.08635 3.21034 3.84435C3.38098 3.67929 3.58342 3.55068 3.80534 3.46635L8.27684 1.52935Z" fill="#586380"/>
</svg>
