<svg width="32" height="32" viewBox="0 0 32 32" fill="none" xmlns="http://www.w3.org/2000/svg">
<path d="M10.5598 17.9597C12.4398 17.9597 13.9465 19.481 13.9465 21.3743V25.9197C13.9465 27.7997 12.4398 29.333 10.5598 29.333H6.05317C4.1865 29.333 2.6665 27.7997 2.6665 25.9197V21.3743C2.6665 19.481 4.1865 17.9597 6.05317 17.9597H10.5598ZM25.9466 17.9597C27.8133 17.9597 29.3333 19.481 29.3333 21.3743V25.9197C29.3333 27.7997 27.8133 29.333 25.9466 29.333H21.44C19.56 29.333 18.0533 27.7997 18.0533 25.9197V21.3743C18.0533 19.481 19.56 17.9597 21.44 17.9597H25.9466ZM10.5598 2.66675C12.4398 2.66675 13.9465 4.20008 13.9465 6.08141V10.6267C13.9465 12.5201 12.4398 14.0401 10.5598 14.0401H6.05317C4.1865 14.0401 2.6665 12.5201 2.6665 10.6267V6.08141C2.6665 4.20008 4.1865 2.66675 6.05317 2.66675H10.5598ZM25.9466 2.66675C27.8133 2.66675 29.3333 4.20008 29.3333 6.08141V10.6267C29.3333 12.5201 27.8133 14.0401 25.9466 14.0401H21.44C19.56 14.0401 18.0533 12.5201 18.0533 10.6267V6.08141C18.0533 4.20008 19.56 2.66675 21.44 2.66675H25.9466Z" fill="#586380"/>
</svg>
