<svg width="32" height="32" viewBox="0 0 32 32" xmlns="http://www.w3.org/2000/svg">
<path d="M16.0265 2.66675C23.5998 2.66675 29.3332 8.87606 29.3332 15.9801C29.3332 24.2191 22.6132 29.3334 15.9998 29.3334C13.8132 29.3334 11.3865 28.7459 9.43984 27.5975C8.75984 27.1835 8.1865 26.8764 7.45317 27.1168L4.75984 27.918C4.07984 28.1316 3.4665 27.5975 3.6665 26.8764L4.55984 23.8852C4.7065 23.4713 4.67984 23.0306 4.4665 22.6834C3.31984 20.5736 2.6665 18.2635 2.6665 16.0201C2.6665 8.99624 8.27984 2.66675 16.0265 2.66675ZM22.1198 14.3242C21.1732 14.3242 20.4132 15.0854 20.4132 16.0335C20.4132 16.9682 21.1732 17.7427 22.1198 17.7427C23.0665 17.7427 23.8265 16.9682 23.8265 16.0335C23.8265 15.0854 23.0665 14.3242 22.1198 14.3242ZM15.9732 14.3242C15.0398 14.3109 14.2665 15.0854 14.2665 16.0201C14.2665 16.9682 15.0265 17.7293 15.9732 17.7427C16.9198 17.7427 17.6798 16.9682 17.6798 16.0335C17.6798 15.0854 16.9198 14.3242 15.9732 14.3242ZM9.8265 14.3242C8.87984 14.3242 8.11984 15.0854 8.11984 16.0335C8.11984 16.9682 8.89317 17.7427 9.8265 17.7427C10.7732 17.7293 11.5332 16.9682 11.5332 16.0335C11.5332 15.0854 10.7732 14.3242 9.8265 14.3242Z" fill="#586380"/>
</svg>
