<svg width="32" height="33" viewBox="0 0 32 33" fill="none" xmlns="http://www.w3.org/2000/svg">
<path d="M16.36 3C23.9333 3 29.6667 9.20931 29.6667 16.3133C29.6667 24.5523 22.9467 29.6667 16.3333 29.6667C14.1467 29.6667 11.72 29.0791 9.77333 27.9307C9.09333 27.5168 8.52 27.2097 7.78667 27.45L5.09333 28.2512C4.41333 28.4649 3.8 27.9307 4 27.2096L4.89333 24.2185C5.04 23.8045 5.01333 23.3639 4.8 23.0167C3.65333 20.9069 3 18.5967 3 16.3534C3 9.32949 8.61333 3 16.36 3ZM22.4533 14.6575C21.5067 14.6575 20.7467 15.4186 20.7467 16.3667C20.7467 17.3015 21.5067 18.0759 22.4533 18.0759C23.4 18.0759 24.16 17.3015 24.16 16.3667C24.16 15.4186 23.4 14.6575 22.4533 14.6575ZM16.3067 14.6575C15.3733 14.6441 14.6 15.4186 14.6 16.3534C14.6 17.3015 15.36 18.0626 16.3067 18.0759C17.2533 18.0759 18.0133 17.3015 18.0133 16.3667C18.0133 15.4186 17.2533 14.6575 16.3067 14.6575ZM10.16 14.6575C9.21333 14.6575 8.45333 15.4186 8.45333 16.3667C8.45333 17.3015 9.22667 18.0759 10.16 18.0759C11.1067 18.0626 11.8667 17.3015 11.8667 16.3667C11.8667 15.4186 11.1067 14.6575 10.16 14.6575Z" fill="#586380"/>
</svg>
