<svg version="1.1" viewBox="0 0 2000 2000" width="60" height="60" xmlns="http://www.w3.org/2000/svg">
        <path transform="translate(929,733)"
          d="m0 0h111l61 3 21 2 25 5 26 8 22 10 16 10 19 14 10 9 8 7 15 16 13 18 12 19 12 25 10 30 5 24 2 20v32l-3 24-5 21-7 21-11 25-10 17-9 13-10 13-24 24-14 11-14 10-19 11-20 9-21 7-21 5-21 3-18 1h-283l-16-2-9-4-6-4-5-5-6-8-4-10-1-4v-17l4-12 8-10 8-6 8-4 16-3 35-1 248-1 23-2 21-6 16-6 17-10 10-8 10-9 9-9 10-13 9-16 8-21 4-16 2-13v-25l-3-19-6-20-7-15-9-16-9-11-9-10-12-10-18-12-15-7-18-6-12-2-33-2-172-1-17-2-12-5-10-9-8-13-4-13v-9l3-10 6-9 12-10 14-7 8-2z"
          fill="#3F4FFD" />
        <path transform="translate(902,546)"
          d="m0 0h52l10 3 9 6 7 7 6 10 3 9 1 12-3 14-6 10-7 8-9 6-13 4-17 2-47 1-22 3-15 4-18 8-14 8-12 8-12 11-8 9-9 13-8 14-6 14-4 13-3 17v34l4 23 7 20 10 19 10 14 16 16 13 10 14 9 12 5 23 7 19 3 27 1 174 1 15 3 13 7 8 9 7 14 1 5v14l-3 10-6 10-5 6-11 7-11 4-10 1h-97l-4-2h-27l-35 1h-23l-28-2-24-4-21-5-16-6-19-9-19-12-16-12-15-13-17-17-9-11-11-15-11-19-11-23-8-24-5-23-2-14-1-15v-18l3-27 5-23 8-24 11-24 6-11 10-16 11-14 12-14 13-13 14-11 19-13 14-8 19-9 23-7 28-6 20-2z"
          fill="#3F4FFD" />
        <path transform="translate(1015,1306)"
          d="m0 0h43l10 3 9 8 5 10 1 4v9l-4 10 2 6 4 8 1 11-4 13-10 11-9 4-21 1h-19l-11-1-3-3-1-3v-85l2-4zm17 23v51h26l3-2 1-3v-8l-3-4-13-2-2-1-1-3v-9l3-3 12-2 1-1v-11l-2-1z"
          fill="#3F4FFD" />
        <path transform="translate(866,1301)"
          d="m0 0h11l5 3 1 2v92l-4 5h-14l-4-3-5 1-4 2h-15l-10-5-7-7-6-12-1-3v-14l4-11 9-10 10-6 3-1h11l10 5v-33l3-4zm-21 56-5 3-4 6 1 8 5 5 2 1h8l6-5 2-4-1-7-4-5-4-2z"
          fill="#3F4FFD" />
        <path transform="translate(1226,1301)"
          d="m0 0h12l5 2 1 2v93l-5 5h-14l-2-4-6 2-4 2h-15l-10-5-7-7-6-12-1-4v-13l4-10 4-6 9-8 9-4h11l10 5v-33zm-20 56-6 3-3 6 1 7 3 5 4 2h8l6-5 2-7-3-7-3-3z"
          fill="#3F4FFD" />
        <path transform="translate(1306,1301)"
          d="m0 0h11l5 3 1 2v92l-4 5h-14l-4-3-5 1-4 2h-15l-10-5-7-7-6-12-1-4v-12l3-10 6-8 8-7 9-4h11l10 5v-33l3-4zm-22 56-6 5-2 4 1 8 4 5 8 2 6-3 4-4 1-7-3-6-6-4z"
          fill="#3F4FFD" />
        <path transform="translate(618,1305)"
          d="m0 0h20l11 4 8 7 2 6-6 9-4 3-7-1-8-5h-11l-4 4 1 6 4 3 25 7 8 5 5 7 2 6v14l-3 8-9 10-9 5-9 2h-14l-10-3-11-8-6-9 1-6 6-7 3-2h5l10 8 6 4h10l5-4 1-6-4-4-21-6-9-5-6-5-5-11v-13l3-8 9-10 8-4z"
          fill="#3F4FFD" />
        <path transform="translate(902,1332)"
          d="m0 0 7 1 11 18 9 16h2l12-27 4-6 1-1h7l8 4 4 5-5 14-15 33-11 25-8 16-4 5-3 1-8-3-6-4-1-5 7-17 5-11-2-6-18-30-7-12-1-7 5-5z"
          fill="#404FFD" />
        <path transform="translate(1343,1332)"
          d="m0 0h5l6 7 13 22 3 6 2 1 2-6 11-24 5-6 9 2 8 5 1 4-5 13-19 42-12 27-6 10h-7l-8-4-4-4 1-6 8-18 3-6-1-5-17-29-9-15-1-7 8-7z"
          fill="#3F4FFD" />
        <path transform="translate(1099,1334)"
          d="m0 0h14l4 4 1 4v21l2 13 4 3h10l5-4 1-4 1-32 5-5h13l4 2 1 2 1 53-2 9-4 3h-14l-5-5-9 5h-14l-10-5-8-9-4-10-1-5v-34l3-5z"
          fill="#3F4FFD" />
        <path transform="translate(742,1333)"
          d="m0 0 12 2 2 2 1 13v17l2 8 2 3 3 1h8l5-4 2-5 1-31 4-4 2-1h12l5 4 1 52-2 10-3 3-11 1-6-3-2-3-4 1-6 4h-14l-10-5-8-9-4-10-1-5v-33l3-6z"
          fill="#3F4FFD" />
        <path transform="translate(687,1310)"
          d="m0 0h12l5 2 1 2v20h15l5 4 1 3v8l-2 5-4 3h-15l1 21 3 3 10 2 3 4v10l-3 5-1 1h-19l-10-5-5-7-2-7v-27h-8l-3-2-1-3v-13l3-4 8-2 1-17 3-5z"
          fill="#3F4FFD" />
      </svg>