<svg width="28" height="27" viewBox="0 0 28 27" fill="none" xmlns="http://www.w3.org/2000/svg">
<path d="M20.2207 0.180773C22.1387 0.0608965 24.0301 0.726874 25.4553 2.03219C26.7607 3.45738 27.4267 5.34876 27.3201 7.28009V19.7206C27.44 21.6519 26.7607 23.5433 25.4687 24.9685C24.0435 26.2738 22.1387 26.9398 20.2207 26.8199H7.78015C5.8488 26.9398 3.95741 26.2738 2.53221 24.9685C1.22688 23.5433 0.560896 21.6519 0.680773 19.7206V7.28009C0.560896 5.34876 1.22688 3.45738 2.53221 2.03219C3.95741 0.726874 5.8488 0.0608965 7.78015 0.180773H20.2207ZM19.8744 6.26781C19.0486 5.442 17.7166 5.442 16.8908 6.26781L15.9984 7.17354C15.8652 7.30673 15.8652 7.53317 15.9984 7.66636C15.9984 7.66636 16.0245 7.69234 16.0711 7.73861L16.3987 8.06444C16.5882 8.253 16.8248 8.48847 17.0623 8.72527L17.8677 9.53033C18.0358 9.69916 18.1473 9.81229 18.1562 9.82413C18.3027 9.98396 18.3959 10.1971 18.3959 10.4368C18.3959 10.9163 18.0097 11.3159 17.5168 11.3159C17.2904 11.3159 17.0773 11.2227 16.9308 11.0762L14.7064 8.86512C14.5998 8.75856 14.4133 8.75856 14.3068 8.86512L7.95331 15.2185C7.51376 15.6581 7.26068 16.2442 7.24737 16.8702L7.16745 20.0269C7.16745 20.2001 7.22073 20.3599 7.3406 20.4798C7.46048 20.5996 7.62032 20.6662 7.79347 20.6662H10.9236C11.5629 20.6662 12.1756 20.4132 12.6418 19.9603L21.606 10.9696C22.4185 10.1438 22.4185 8.81184 21.606 7.99935L19.8744 6.26781Z" fill="#586380"/>
</svg>
